<?xml version="1.0" standalone="no"?>
<!DOCTYPE svg PUBLIC "-//W3C//DTD SVG 20010904//EN"
 "http://www.w3.org/TR/2001/REC-SVG-20010904/DTD/svg10.dtd">
<svg version="1.0" xmlns="http://www.w3.org/2000/svg"
 width="480.000000pt" height="480.000000pt" viewBox="0 0 480.000000 480.000000"
 preserveAspectRatio="xMidYMid meet">

<g transform="translate(0.000000,480.000000) scale(0.100000,-0.100000)"
fill="#000000" stroke="none">
<path d="M1269 4453 c-6 -16 -18 -66 -27 -113 -13 -71 -14 -101 -4 -185 13
-116 36 -191 63 -206 29 -15 33 9 14 77 -22 82 -30 245 -16 317 7 31 16 57 21
57 4 0 44 -26 87 -59 80 -60 187 -166 238 -236 47 -65 88 -105 107 -105 10 0
18 6 18 13 0 28 -106 166 -199 257 -91 89 -251 210 -279 210 -7 0 -17 -12 -23
-27z"/>
<path d="M1363 4183 c6 -91 27 -196 42 -212 9 -8 116 -6 178 3 60 9 61 25 4
102 -52 70 -193 204 -214 204 -14 0 -15 -14 -10 -97z"/>
<path d="M1613 3911 c-72 -9 -135 -19 -139 -24 -12 -12 161 -172 251 -232 96
-64 180 -104 285 -135 43 -13 99 -39 130 -61 61 -42 84 -49 76 -21 -3 9 -10
37 -16 62 -6 25 -13 53 -16 62 -6 19 27 41 49 32 8 -3 18 -23 21 -45 11 -69
52 -133 149 -238 90 -95 131 -161 190 -300 9 -23 11 -18 18 47 8 86 14 102 33
102 24 0 28 -16 37 -149 14 -204 51 -354 133 -541 50 -113 124 -242 135 -236
4 3 2 42 -6 88 -7 46 -14 131 -15 190 -1 116 8 141 46 136 20 -3 21 -11 27
-158 7 -163 28 -298 58 -365 10 -22 52 -72 96 -113 84 -80 386 -324 393 -317
7 7 -29 296 -54 435 -77 421 -224 784 -435 1070 -84 115 -283 310 -399 392
-181 128 -413 234 -668 304 -142 39 -178 40 -379 15z"/>
<path d="M1299 3853 c-15 -39 -23 -221 -12 -263 6 -19 15 -34 22 -32 32 7 445
-65 644 -112 75 -18 82 -4 9 18 -145 45 -279 130 -457 291 -142 129 -186 149
-206 98z"/>
<path d="M1334 3476 c-31 -22 -82 -105 -104 -169 -14 -38 -24 -117 -35 -254
-9 -109 -27 -317 -41 -463 -22 -221 -25 -299 -21 -470 4 -171 8 -217 26 -278
24 -81 61 -160 87 -187 16 -15 20 -14 60 26 24 24 44 47 44 53 0 5 -27 34 -60
64 -81 73 -102 116 -108 220 -2 45 -1 82 3 82 4 0 27 -16 50 -35 62 -50 102
-119 121 -206 8 -41 18 -80 20 -87 3 -9 21 0 57 28 28 23 124 97 212 164 195
147 328 273 378 358 20 35 49 101 64 148 40 131 43 138 107 235 90 136 138
246 144 326 3 39 -1 82 -8 104 -16 47 -78 116 -135 150 -78 45 -248 94 -502
144 -322 64 -333 66 -359 47z m404 -95 c2 -13 0 -27 -5 -31 -4 -5 -44 -13 -87
-19 -188 -26 -284 -114 -346 -319 -24 -78 -30 -86 -60 -77 -26 8 -26 37 4 124
65 191 181 299 361 335 98 20 129 17 133 -13z m46 -83 c21 -30 20 -59 -4 -143
-61 -213 -148 -280 -362 -279 -54 0 -100 3 -103 6 -10 10 36 162 65 213 58
102 167 181 280 204 66 13 93 18 102 20 4 0 14 -9 22 -21z"/>
<path d="M1640 3233 c-8 -2 -21 -6 -28 -8 -7 -3 6 -22 33 -49 25 -25 45 -50
45 -56 0 -27 19 -5 29 34 19 77 16 86 -26 85 -21 0 -45 -3 -53 -6z"/>
<path d="M1495 3125 c-55 -54 -13 -145 65 -145 27 0 80 52 80 79 0 78 -92 120
-145 66z"/>
<path d="M1396 2984 c-13 -34 -7 -54 18 -54 13 0 32 3 41 6 14 6 12 11 -11 35
-32 33 -39 35 -48 13z"/>
<path d="M2350 3250 c0 -6 12 -31 26 -56 69 -117 34 -266 -119 -511 -35 -55
-72 -127 -81 -160 -54 -181 -98 -256 -226 -383 -47 -47 -146 -133 -220 -190
-272 -209 -399 -330 -456 -432 -29 -52 -29 -55 -28 -208 0 -120 6 -179 23
-260 29 -138 67 -248 105 -313 l31 -52 992 -3 992 -2 21 30 c79 111 132 367
145 695 5 139 4 163 -11 183 -9 13 -96 90 -193 170 -206 171 -405 362 -466
447 -63 88 -122 213 -256 538 -153 370 -203 473 -246 499 -21 12 -33 16 -33 8z"/>
<path d="M1533 593 c-42 -8 -23 -21 40 -28 86 -9 1704 -2 1713 8 4 4 4 10 0
15 -8 7 -1714 13 -1753 5z"/>
<path d="M1560 390 l0 -90 840 0 840 0 0 90 0 90 -840 0 -840 0 0 -90z"/>
</g>
</svg>
