<?xml version="1.0" standalone="no"?>
<!DOCTYPE svg PUBLIC "-//W3C//DTD SVG 20010904//EN"
 "http://www.w3.org/TR/2001/REC-SVG-20010904/DTD/svg10.dtd">
<svg version="1.0" xmlns="http://www.w3.org/2000/svg"
 width="480.000000pt" height="480.000000pt" viewBox="0 0 480.000000 480.000000"
 preserveAspectRatio="xMidYMid meet">

<g transform="translate(0.000000,480.000000) scale(0.100000,-0.100000)"
fill="#000000" stroke="none">
<path d="M2386 3308 c-14 -42 -43 -296 -66 -578 -6 -74 -12 -154 -14 -176 l-3
-42 45 -6 c62 -8 140 -8 145 2 8 13 -47 626 -66 736 -11 64 -31 95 -41 64z"/>
<path d="M2171 2421 c-33 -9 -51 -38 -31 -51 18 -12 499 -13 517 -2 25 16 3
49 -35 56 -49 8 -421 6 -451 -3z"/>
<path d="M1952 2279 c-15 -5 -22 -16 -20 -26 3 -16 26 -19 236 -26 271 -10
693 2 699 19 2 7 -3 19 -12 28 -15 14 -63 16 -448 15 -242 0 -442 -4 -455 -10z"/>
<path d="M1750 2140 c-38 -70 -52 -311 -25 -415 40 -152 103 -244 314 -457
l165 -168 196 0 196 0 165 168 c230 232 299 342 321 507 13 97 -1 289 -25 348
l-16 37 -640 0 c-634 0 -640 0 -651 -20z"/>
<path d="M2217 1023 c-20 -3 -27 -9 -25 -21 5 -26 103 -36 260 -27 130 7 171
15 154 32 -16 16 -307 28 -389 16z"/>
<path d="M2272 893 c-27 -4 -33 -8 -30 -26 3 -22 6 -22 158 -22 150 0 155 1
158 21 3 18 -4 22 -44 28 -49 6 -185 6 -242 -1z"/>
<path d="M2106 664 l-88 -94 382 0 382 0 -89 95 -88 95 -205 -1 -205 0 -89
-95z"/>
<path d="M2047 493 c-50 -3 -70 -8 -74 -19 -3 -9 0 -20 8 -25 18 -11 820 -11
838 0 8 5 11 15 8 23 -4 11 -32 17 -104 21 -97 7 -545 6 -676 0z"/>
<path d="M1916 347 c-17 -12 -17 -14 0 -28 26 -21 942 -21 968 0 17 14 17 16
0 28 -26 19 -942 19 -968 0z"/>
</g>
</svg>
