<?xml version="1.0" standalone="no"?>
<!DOCTYPE svg PUBLIC "-//W3C//DTD SVG 20010904//EN"
 "http://www.w3.org/TR/2001/REC-SVG-20010904/DTD/svg10.dtd">
<svg version="1.0" xmlns="http://www.w3.org/2000/svg"
 width="480.000000pt" height="480.000000pt" viewBox="0 0 480.000000 480.000000"
 preserveAspectRatio="xMidYMid meet">

<g transform="translate(0.000000,480.000000) scale(0.100000,-0.100000)"
fill="#000000" stroke="none">
<path d="M2219 2608 c-213 -174 -479 -399 -497 -420 -10 -13 -7 -16 25 -22 21
-3 315 -6 653 -6 338 0 632 3 653 6 32 6 35 9 25 22 -37 44 -660 562 -677 562
-4 0 -86 -64 -182 -142z"/>
<path d="M1658 2093 c-104 -3 -139 -7 -148 -18 -10 -12 -9 -16 6 -22 31 -13
1761 -10 1774 3 8 8 6 15 -5 24 -14 11 -151 14 -753 15 -406 1 -798 0 -874 -2z"/>
<path d="M1398 1953 c-16 -2 -28 -11 -28 -18 0 -8 12 -18 28 -22 35 -10 1969
-10 2005 0 39 11 34 33 -10 41 -41 6 -1951 6 -1995 -1z"/>
<path d="M1079 1713 c-129 -132 -169 -186 -207 -276 -22 -54 -25 -77 -26 -182
0 -110 2 -125 27 -179 51 -111 178 -259 298 -349 l36 -27 1193 0 1193 0 36 27
c120 90 247 238 298 349 25 54 27 68 27 179 -1 98 -5 130 -23 173 -36 90 -88
161 -209 284 l-115 118 -1207 0 -1207 0 -114 -117z"/>
<path d="M1240 465 l0 -165 1160 0 1160 0 0 165 0 165 -1160 0 -1160 0 0 -165z"/>
</g>
</svg>
