<?xml version="1.0" standalone="no"?>
<!DOCTYPE svg PUBLIC "-//W3C//DTD SVG 20010904//EN"
 "http://www.w3.org/TR/2001/REC-SVG-20010904/DTD/svg10.dtd">
<svg version="1.0" xmlns="http://www.w3.org/2000/svg"
 width="480.000000pt" height="480.000000pt" viewBox="0 0 480.000000 480.000000"
 preserveAspectRatio="xMidYMid meet">

<g transform="translate(0.000000,480.000000) scale(0.100000,-0.100000)"
fill="#000000" stroke="none">
<path d="M2372 3733 c-36 -99 -50 -162 -77 -343 -15 -96 -33 -211 -40 -255 -7
-44 -10 -83 -6 -88 4 -4 75 -6 157 -5 142 3 149 4 147 23 -6 64 -67 453 -83
525 -20 94 -57 200 -69 200 -5 0 -18 -26 -29 -57z"/>
<path d="M2023 2950 c-13 -5 -23 -18 -23 -28 0 -16 11 -20 77 -26 42 -3 187
-6 323 -6 136 0 281 3 323 6 66 6 77 10 77 26 0 11 -11 23 -26 28 -32 13 -721
12 -751 0z"/>
<path d="M1880 2824 c-65 -8 -80 -14 -80 -33 0 -13 10 -20 31 -25 17 -3 273
-6 569 -6 296 0 552 3 569 6 34 7 40 24 14 45 -13 11 -112 14 -542 15 -289 1
-542 0 -561 -2z"/>
<path d="M1601 2678 c-28 -30 -94 -159 -125 -246 -14 -39 -30 -112 -36 -161
-38 -306 99 -595 477 -1008 l85 -93 398 0 398 0 91 98 c294 318 438 568 471
822 14 108 1 218 -40 342 -33 99 -89 212 -121 247 l-20 21 -779 0 -779 0 -20
-22z"/>
<path d="M1995 1076 l-20 -15 20 -8 c25 -10 773 -10 799 0 15 6 17 10 7 20 -9
9 -112 13 -399 15 -329 3 -390 1 -407 -12z"/>
<path d="M1843 741 c-90 -120 -163 -221 -163 -224 0 -4 324 -7 720 -7 396 0
720 3 720 7 0 3 -73 104 -162 224 l-163 218 -395 0 -395 0 -162 -218z"/>
<path d="M1640 365 l0 -65 760 0 760 0 0 65 0 65 -760 0 -760 0 0 -65z"/>
</g>
</svg>
