<?xml version="1.0" standalone="no"?>
<!DOCTYPE svg PUBLIC "-//W3C//DTD SVG 20010904//EN"
 "http://www.w3.org/TR/2001/REC-SVG-20010904/DTD/svg10.dtd">
<svg version="1.0" xmlns="http://www.w3.org/2000/svg"
 width="480.000000pt" height="480.000000pt" viewBox="0 0 480.000000 480.000000"
 preserveAspectRatio="xMidYMid meet">

<g transform="translate(0.000000,480.000000) scale(0.100000,-0.100000)"
fill="#000000" stroke="none">
<path d="M2355 4397 c-52 -112 -105 -351 -105 -474 l0 -43 150 0 150 0 0 49
c0 160 -106 541 -151 541 -6 0 -25 -33 -44 -73z"/>
<path d="M2112 3812 c-70 -7 -97 -21 -89 -47 5 -16 281 -26 525 -19 l222 6 0
23 c0 13 -8 26 -17 30 -24 9 -550 15 -641 7z"/>
<path d="M1863 3673 c-28 -5 -38 -32 -15 -41 28 -11 1099 -9 1111 3 6 6 7 16
1 25 -8 13 -82 15 -542 16 -293 1 -543 0 -555 -3z"/>
<path d="M1682 3553 c-23 -5 -49 -40 -37 -51 9 -9 1318 -15 1423 -7 77 6 83 8
80 28 -2 13 -13 24 -28 28 -27 7 -1400 9 -1438 2z"/>
<path d="M1408 3376 c-258 -298 -320 -594 -196 -944 97 -276 282 -538 608
-859 l154 -153 429 0 429 0 159 164 c290 299 430 482 535 701 98 204 130 342
122 523 -9 188 -73 341 -220 523 l-79 99 -948 0 -947 0 -46 -54z"/>
<path d="M1985 1354 c-46 -12 -48 -13 -34 -30 11 -13 66 -15 445 -12 307 2
436 6 444 14 9 9 8 14 -2 20 -14 9 -819 16 -853 8z"/>
<path d="M2000 1205 l0 -35 400 0 400 0 0 35 0 35 -400 0 -400 0 0 -35z"/>
<path d="M1750 895 l-215 -215 865 0 865 0 -215 215 -215 215 -435 0 -435 0
-215 -215z"/>
<path d="M1494 607 c-3 -8 -4 -52 -2 -98 l3 -84 905 0 905 0 0 95 0 95 -903 3
c-747 2 -903 0 -908 -11z"/>
<path d="M1455 353 c-34 -8 -38 -20 -14 -35 35 -19 1883 -19 1918 0 61 35 23
37 -942 38 -518 1 -951 0 -962 -3z"/>
</g>
</svg>
