<?xml version="1.0" standalone="no"?>
<!DOCTYPE svg PUBLIC "-//W3C//DTD SVG 20010904//EN"
 "http://www.w3.org/TR/2001/REC-SVG-20010904/DTD/svg10.dtd">
<svg version="1.0" xmlns="http://www.w3.org/2000/svg"
 width="360.000000pt" height="360.000000pt" viewBox="0 0 360.000000 360.000000"
 preserveAspectRatio="xMidYMid meet">

<g transform="translate(0.000000,360.000000) scale(0.100000,-0.100000)"
fill="#000000" stroke="none">
<path d="M1742 2841 c-37 -81 -55 -162 -81 -361 -31 -233 -20 -210 -107 -210
l-74 0 -25 -50 c-25 -50 -25 -50 -75 -50 -50 0 -50 0 -75 -50 -25 -50 -26 -50
-74 -50 l-49 0 -40 -62 c-81 -130 -114 -238 -114 -373 0 -103 11 -160 51 -260
53 -130 159 -284 311 -448 l73 -78 -23 -24 -23 -25 21 -23 c12 -13 22 -26 22
-30 0 -10 -266 -363 -280 -372 -6 -3 -10 -46 -10 -101 l0 -94 630 0 630 0 0
94 c0 55 -4 98 -10 101 -14 9 -280 362 -280 372 0 4 10 17 22 30 l21 23 -22
24 -23 25 83 91 c243 264 351 478 351 694 0 137 -33 244 -114 374 l-40 62 -49
0 c-48 0 -49 0 -74 50 -25 50 -25 50 -75 50 -50 0 -50 0 -75 50 l-25 50 -74 0
c-87 0 -76 -21 -106 205 -27 206 -45 285 -82 366 -26 59 -32 66 -58 66 -26 0
-32 -7 -58 -66z m87 -63 c25 -78 35 -134 61 -321 12 -81 23 -154 26 -162 5
-13 -12 -15 -116 -15 -104 0 -121 2 -116 15 3 8 14 81 26 162 11 82 25 173 31
203 14 75 49 180 59 180 5 0 17 -28 29 -62z m265 -574 c3 -9 6 -20 6 -25 0 -5
-124 -9 -300 -9 -176 0 -300 4 -300 9 0 41 -1 41 300 41 253 0 289 -2 294 -16z
m150 -100 c3 -9 6 -20 6 -25 0 -5 -183 -9 -450 -9 -267 0 -450 4 -450 9 0 42
-11 41 450 41 390 0 439 -2 444 -16z m166 -114 c12 -16 36 -62 54 -102 131
-286 47 -557 -281 -915 l-85 -93 -298 0 -298 0 -85 93 c-173 188 -286 368
-324 517 -21 82 -21 206 0 287 17 63 63 165 99 216 l19 27 589 0 589 0 21 -30z
m-305 -1190 c0 -13 -41 -15 -299 -18 -175 -1 -304 2 -309 7 -28 28 10 31 306
29 261 -3 302 -5 302 -18z m111 -247 l125 -168 -270 -3 c-149 -1 -393 -1 -542
0 l-270 3 125 168 126 167 290 0 290 0 126 -167z m154 -278 l0 -45 -570 0
-570 0 0 45 0 45 570 0 570 0 0 -45z"/>
</g>
</svg>
