<?xml version="1.0" standalone="no"?>
<!DOCTYPE svg PUBLIC "-//W3C//DTD SVG 20010904//EN"
 "http://www.w3.org/TR/2001/REC-SVG-20010904/DTD/svg10.dtd">
<svg version="1.0" xmlns="http://www.w3.org/2000/svg"
 width="360.000000pt" height="360.000000pt" viewBox="0 0 360.000000 360.000000"
 preserveAspectRatio="xMidYMid meet">

<g transform="translate(0.000000,360.000000) scale(0.100000,-0.100000)"
fill="#000000" stroke="none">
<path d="M1483 1868 l-297 -248 -58 0 -58 0 0 -50 0 -50 -50 0 -50 0 0 -50 0
-50 -37 -1 c-21 -1 -41 -1 -44 -1 -12 2 -143 -119 -187 -171 -24 -29 -60 -86
-80 -126 -35 -72 -37 -80 -37 -176 0 -97 2 -104 37 -177 40 -79 133 -189 207
-243 l41 -30 0 -147 c0 -125 2 -148 15 -148 8 0 15 -4 15 -10 0 -7 307 -10
900 -10 593 0 900 3 900 10 0 6 7 10 15 10 13 0 15 22 15 140 l0 140 103 103
c86 84 111 116 143 181 38 77 39 84 39 181 0 96 -2 104 -37 176 -20 40 -57 98
-82 128 -44 53 -172 171 -185 169 -3 0 -23 0 -43 1 l-38 1 0 49 0 50 -52 3
-53 3 -3 48 -3 47 -52 0 -52 0 -297 248 c-170 142 -306 248 -317 248 -11 0
-147 -106 -318 -248z m580 -18 c138 -116 254 -215 255 -220 2 -6 -189 -10
-518 -10 -301 0 -520 4 -518 9 5 13 508 431 519 431 5 0 123 -95 262 -210z
m407 -300 c0 -20 -7 -20 -670 -20 -663 0 -670 0 -670 20 0 20 7 20 670 20 663
0 670 0 670 -20z m100 -100 c0 -20 -7 -20 -770 -20 -763 0 -770 0 -770 20 0
20 7 20 770 20 763 0 770 0 770 -20z m231 -177 c71 -73 104 -116 130 -168 31
-64 34 -77 34 -165 0 -88 -2 -99 -33 -156 -39 -72 -104 -149 -179 -209 l-55
-45 -898 0 -898 0 -55 45 c-75 60 -140 137 -179 209 -31 57 -33 68 -33 156 0
88 3 101 34 165 26 53 58 94 131 168 l97 97 904 0 904 0 96 -97z m-131 -923
l0 -120 -870 0 -870 0 0 120 0 120 870 0 870 0 0 -120z"/>
</g>
</svg>
