<?xml version="1.0" standalone="no"?>
<!DOCTYPE svg PUBLIC "-//W3C//DTD SVG 20010904//EN"
 "http://www.w3.org/TR/2001/REC-SVG-20010904/DTD/svg10.dtd">
<svg version="1.0" xmlns="http://www.w3.org/2000/svg"
 width="360.000000pt" height="360.000000pt" viewBox="0 0 360.000000 360.000000"
 preserveAspectRatio="xMidYMid meet">

<g transform="translate(0.000000,360.000000) scale(0.100000,-0.100000)"
fill="#000000" stroke="none">
<path d="M926 3407 c-38 -57 -49 -111 -50 -232 0 -94 4 -133 20 -180 18 -52
20 -83 18 -235 -2 -165 -3 -178 -27 -230 -32 -68 -47 -157 -47 -280 0 -52 -10
-171 -22 -265 -26 -208 -31 -510 -9 -595 20 -79 45 -132 80 -172 l30 -35 -19
-38 c-29 -56 -34 -117 -21 -234 23 -219 80 -374 171 -466 l59 -60 3 -105 3
-105 685 0 685 0 3 105 3 104 63 66 c73 76 103 142 138 302 19 90 22 133 22
333 1 251 -10 363 -54 585 -138 690 -548 1150 -1161 1306 l-104 27 -35 60
c-67 116 -246 285 -367 346 -52 26 -49 26 -67 -2z m124 -98 c91 -64 184 -157
238 -237 23 -33 42 -63 42 -66 0 -4 -8 -6 -19 -6 -10 0 -29 17 -44 38 -53 81
-128 161 -202 216 -42 32 -78 56 -81 53 -3 -2 -9 -33 -15 -68 -12 -76 -4 -154
27 -261 4 -12 0 -18 -11 -18 -38 0 -71 168 -55 282 10 66 27 118 40 118 4 0
40 -23 80 -51z m38 -145 c71 -62 149 -164 132 -174 -20 -12 -153 -21 -163 -11
-24 24 -51 231 -29 231 4 0 31 -21 60 -46z m407 -244 c443 -118 756 -374 950
-775 114 -236 178 -481 210 -808 l7 -68 -139 109 c-76 61 -159 132 -185 159
-44 46 -47 53 -68 153 -13 65 -21 142 -21 203 l0 98 -27 -3 c-26 -3 -27 -5
-30 -72 -3 -61 7 -155 24 -236 9 -42 -61 76 -106 177 -61 138 -90 258 -97 396
-6 114 -6 117 -29 117 -22 0 -23 -5 -26 -66 l-3 -66 -39 88 c-33 76 -50 100
-116 164 -75 73 -110 135 -110 192 0 19 -25 24 -48 10 -10 -7 -9 -21 7 -70 10
-34 16 -62 12 -62 -4 0 -25 15 -47 33 -25 22 -59 38 -95 46 -117 25 -255 110
-369 225 -50 52 -53 56 -30 57 14 0 70 7 125 14 55 7 109 13 120 14 11 0 70
-12 130 -29z m-406 -72 c164 -154 266 -221 391 -254 36 -10 70 -22 75 -27 7
-7 3 -7 -10 -3 -103 37 -548 119 -564 103 -22 -22 -26 172 -4 228 11 29 47 14
112 -47z m136 -268 c186 -34 326 -70 389 -102 183 -91 188 -220 21 -459 -30
-43 -55 -89 -55 -102 0 -40 -37 -134 -75 -192 -46 -68 -118 -135 -265 -244
-63 -46 -136 -102 -161 -123 l-46 -38 -7 43 c-14 85 -30 122 -78 170 -26 26
-52 47 -58 47 -17 0 -11 -111 9 -155 16 -36 61 -83 104 -110 14 -9 12 -15 -20
-49 -34 -37 -37 -38 -50 -20 -89 119 -108 325 -65 704 12 102 25 255 30 340 7
134 12 163 34 210 35 77 74 121 101 115 12 -2 99 -18 192 -35z m576 -162 c25
-20 63 -102 171 -367 140 -346 161 -384 288 -512 58 -58 159 -149 225 -201 66
-53 134 -110 150 -127 l30 -32 -1 -137 c-2 -208 -47 -421 -106 -504 l-19 -28
-740 0 -739 0 -24 38 c-56 85 -106 297 -106 450 0 67 5 95 22 130 34 71 139
173 302 297 259 194 338 292 377 463 5 24 32 76 59 116 123 181 151 314 85
410 -25 37 -17 38 26 4z m669 -1983 c-11 -13 -98 -15 -670 -15 -572 0 -659 2
-670 15 -11 13 65 15 670 15 605 0 681 -2 670 -15z m-40 -140 l0 -65 -630 0
-630 0 0 65 0 65 630 0 630 0 0 -65z"/>
<path d="M1214 2550 c-146 -21 -241 -110 -288 -269 -21 -72 -20 -78 9 -83 21
-4 26 -1 31 21 40 180 126 266 279 279 64 5 65 5 65 33 0 32 -3 33 -96 19z"/>
<path d="M1240 2476 c-135 -29 -224 -128 -253 -283 l-6 -32 55 -7 c67 -8 153
8 200 37 19 11 45 39 58 62 32 55 72 200 57 205 -6 2 -11 10 -11 18 0 17 -24
17 -100 0z m60 -52 c0 -3 -5 -25 -11 -50 l-12 -45 -18 30 c-10 16 -28 35 -41
42 l-23 13 25 7 c31 9 80 11 80 3z m-80 -96 c13 -25 13 -31 0 -54 -19 -34 -50
-46 -81 -30 -35 17 -46 58 -25 91 24 37 83 33 106 -7z m-145 -126 c-33 -4 -36
-2 -28 26 l6 23 24 -23 25 -23 -27 -3z"/>
</g>
</svg>
