<?xml version="1.0" standalone="no"?>
<!DOCTYPE svg PUBLIC "-//W3C//DTD SVG 20010904//EN"
 "http://www.w3.org/TR/2001/REC-SVG-20010904/DTD/svg10.dtd">
<svg version="1.0" xmlns="http://www.w3.org/2000/svg"
 width="360.000000pt" height="360.000000pt" viewBox="0 0 360.000000 360.000000"
 preserveAspectRatio="xMidYMid meet">

<g transform="translate(0.000000,360.000000) scale(0.100000,-0.100000)"
fill="#000000" stroke="none">
<path d="M1645 2830 c-90 -14 -220 -57 -310 -102 -202 -101 -364 -264 -464
-464 -334 -673 130 -1464 879 -1500 529 -26 990 347 1075 871 87 532 -247
1038 -776 1174 -96 25 -306 36 -404 21z m385 -100 c91 -22 241 -89 315 -140
131 -90 248 -230 320 -382 66 -140 89 -244 89 -408 0 -164 -23 -268 -89 -408
-99 -208 -249 -358 -457 -457 -140 -66 -244 -89 -408 -89 -160 0 -266 22 -396
83 -217 102 -364 246 -465 456 -70 146 -93 248 -93 415 0 163 23 267 88 406
53 112 89 165 168 249 234 251 594 357 928 275z"/>
<path d="M1645 2625 c-184 -35 -329 -116 -461 -258 -138 -149 -208 -312 -221
-517 -15 -245 69 -464 246 -641 232 -232 540 -305 859 -204 234 74 453 293
527 527 101 319 28 627 -204 859 -201 201 -472 286 -746 234z m350 -90 c230
-61 439 -252 516 -471 66 -189 63 -362 -8 -546 -76 -193 -248 -362 -438 -428
-142 -50 -267 -61 -404 -35 -290 55 -519 269 -597 555 -25 89 -25 290 0 380
77 286 317 507 608 560 72 12 249 4 323 -15z"/>
<path d="M1660 2424 c-234 -50 -436 -254 -485 -489 -95 -454 306 -855 760
-760 235 49 441 255 490 490 95 456 -309 857 -765 759z m311 -93 c165 -52 309
-197 362 -366 30 -97 30 -233 0 -330 -53 -171 -197 -315 -368 -368 -97 -30
-233 -30 -330 0 -271 85 -439 369 -381 643 69 328 397 520 717 421z"/>
<path d="M1690 2226 c-197 -57 -330 -229 -330 -426 0 -320 337 -533 626 -396
338 160 337 632 -1 793 -65 31 -88 36 -163 39 -53 2 -105 -2 -132 -10z m255
-100 c76 -34 139 -97 178 -175 28 -58 32 -75 32 -151 0 -76 -4 -93 -32 -151
-39 -79 -102 -140 -181 -177 -48 -22 -71 -27 -142 -27 -71 0 -94 5 -142 27
-79 37 -142 98 -181 177 -29 59 -32 75 -32 151 0 70 5 95 27 141 85 185 295
267 473 185z"/>
</g>
</svg>
