<?xml version="1.0" standalone="no"?>
<!DOCTYPE svg PUBLIC "-//W3C//DTD SVG 20010904//EN"
 "http://www.w3.org/TR/2001/REC-SVG-20010904/DTD/svg10.dtd">
<svg version="1.0" xmlns="http://www.w3.org/2000/svg"
 width="360.000000pt" height="360.000000pt" viewBox="0 0 360.000000 360.000000"
 preserveAspectRatio="xMidYMid meet">

<g transform="translate(0.000000,360.000000) scale(0.100000,-0.100000)"
fill="#000000" stroke="none">
<path d="M1740 3354 c-17 -29 -40 -81 -51 -115 -23 -73 -49 -226 -49 -286 l0
-43 -67 0 -68 0 -25 -48 c-24 -45 -27 -47 -73 -50 -46 -3 -49 -5 -69 -48 -21
-43 -23 -44 -70 -44 -47 0 -48 0 -73 -50 -24 -48 -27 -50 -68 -51 -23 -1 -45
-1 -49 0 -20 3 -152 -172 -193 -254 -108 -220 -98 -423 35 -690 78 -157 188
-302 366 -484 l143 -146 -21 -23 -22 -22 32 -33 c60 -62 55 -69 -158 -282
l-190 -189 0 -88 c0 -87 0 -88 -25 -88 -24 0 -25 -2 -25 -70 l0 -70 780 0 780
0 0 70 c0 68 -1 70 -25 70 -25 0 -25 1 -25 88 l0 88 -190 189 c-213 213 -218
220 -158 282 l32 33 -22 23 -22 23 91 89 c269 265 436 512 501 740 17 63 22
104 22 195 -1 131 -24 220 -87 332 -35 63 -161 219 -175 217 -4 -1 -26 -1 -49
0 -41 1 -44 3 -68 51 -25 50 -26 50 -73 50 -47 0 -49 1 -70 44 -20 43 -23 45
-69 48 -46 3 -49 5 -73 50 l-25 48 -67 0 -68 0 0 43 c0 63 -28 220 -51 290
-11 34 -34 85 -51 113 -25 41 -35 51 -58 51 -23 0 -33 -10 -60 -53z m93 -56
c39 -82 77 -257 77 -352 l0 -36 -110 0 -110 0 0 36 c0 47 18 165 37 239 17 68
60 165 73 165 5 0 20 -24 33 -52z m241 -454 c3 -9 6 -20 6 -25 0 -5 -117 -9
-280 -9 -163 0 -280 4 -280 9 0 41 1 41 280 41 235 0 269 -2 274 -16z m146
-104 c11 -20 8 -20 -420 -20 -428 0 -431 0 -420 20 10 19 21 20 420 20 399 0
410 -1 420 -20z m139 -89 c6 -10 7 -21 4 -25 -8 -8 -1133 -8 -1133 0 0 3 5 14
10 25 10 18 27 19 560 19 526 0 550 -1 559 -19z m209 -153 c253 -299 224 -632
-91 -1048 -40 -52 -135 -159 -213 -238 l-140 -142 -322 0 -322 0 -106 103
c-384 369 -561 729 -500 1017 21 99 81 218 157 308 l61 72 707 0 708 0 61 -72z
m-433 -1498 c0 -13 -44 -15 -329 -18 -193 -1 -334 2 -339 7 -28 28 10 31 336
29 287 -3 332 -5 332 -18z m-35 -95 l0 -25 -300 0 -300 0 0 25 0 25 300 0 300
0 0 -25z m185 -235 l160 -160 -645 0 -645 0 160 160 160 160 325 0 325 0 160
-160z m195 -280 l0 -70 -680 0 -680 0 0 70 0 70 680 0 680 0 0 -70z m50 -140
c0 -20 -7 -20 -730 -20 -723 0 -730 0 -730 20 0 20 7 20 730 20 723 0 730 0
730 -20z"/>
</g>
</svg>
