<?xml version="1.0" standalone="no"?>
<!DOCTYPE svg PUBLIC "-//W3C//DTD SVG 20010904//EN"
 "http://www.w3.org/TR/2001/REC-SVG-20010904/DTD/svg10.dtd">
<svg version="1.0" xmlns="http://www.w3.org/2000/svg"
 width="360.000000pt" height="360.000000pt" viewBox="0 0 360.000000 360.000000"
 preserveAspectRatio="xMidYMid meet">

<g transform="translate(0.000000,360.000000) scale(0.100000,-0.100000)"
fill="#000000" stroke="none">
<path d="M1769 2584 c-35 -93 -55 -226 -74 -490 -8 -114 -18 -210 -21 -215 -3
-5 -25 -9 -49 -9 -43 0 -45 -1 -70 -50 -25 -50 -25 -50 -75 -50 -50 0 -50 0
-75 -50 -24 -47 -27 -50 -65 -50 -22 0 -40 -5 -40 -11 0 -5 -5 -7 -10 -4 -25
16 -65 -178 -57 -281 7 -88 42 -193 92 -270 21 -32 94 -114 163 -182 l124
-124 -23 -24 -23 -24 27 -28 c21 -22 27 -38 27 -73 0 -44 -3 -48 -100 -144
-92 -90 -100 -101 -100 -136 0 -31 -4 -38 -22 -41 -21 -3 -23 -9 -26 -75 l-3
-73 431 0 431 0 -3 73 c-3 66 -5 72 -25 75 -19 3 -23 10 -23 41 0 35 -8 46
-100 136 -97 96 -100 100 -100 144 0 35 6 51 27 73 l27 28 -23 24 -22 24 124
123 c68 68 141 151 162 183 50 77 85 182 92 270 8 103 -32 297 -57 281 -5 -3
-10 -1 -10 4 0 6 -18 11 -40 11 -38 0 -41 3 -65 50 -25 50 -25 50 -75 50 -50
0 -50 0 -75 50 -25 49 -27 50 -70 50 -24 0 -46 4 -49 9 -3 5 -13 102 -21 217
-17 228 -35 357 -62 448 -15 49 -22 60 -42 61 -15 1 -25 -5 -32 -21z m41 -99
c0 -3 7 -47 15 -98 8 -50 19 -157 24 -237 6 -80 13 -173 17 -207 l6 -63 -71 0
c-39 0 -71 2 -71 4 0 52 35 437 45 503 8 51 15 95 15 98 0 3 5 5 10 5 6 0 10
-2 10 -5z m184 -681 c3 -9 6 -20 6 -25 0 -5 -85 -9 -200 -9 -115 0 -200 4
-200 9 0 40 6 41 200 41 162 0 189 -2 194 -16z m150 -100 c3 -9 6 -20 6 -25 0
-5 -144 -9 -350 -9 -206 0 -350 4 -350 9 0 41 -4 41 350 41 299 0 339 -2 344
-16z m154 -134 c9 -27 15 -89 15 -155 1 -92 -3 -119 -21 -166 -39 -99 -100
-180 -224 -301 l-120 -118 -148 0 -148 0 -120 118 c-171 166 -237 279 -249
423 -5 64 8 174 27 224 l10 25 482 -2 482 -3 14 -45z m-343 -820 c0 -13 -24
-15 -149 -18 -144 -2 -176 3 -161 27 4 8 55 11 158 9 127 -3 152 -5 152 -18z
m-35 -100 c0 -19 -7 -20 -120 -20 -113 0 -120 1 -120 20 0 19 7 20 120 20 113
0 120 -1 120 -20z m95 -150 l69 -70 -284 0 -284 0 69 70 69 70 146 0 146 0 69
-70z m105 -150 c0 -20 -7 -20 -320 -20 -313 0 -320 0 -320 20 0 20 7 20 320
20 313 0 320 0 320 -20z m50 -100 c0 -20 -7 -20 -370 -20 -363 0 -370 0 -370
20 0 20 7 20 370 20 363 0 370 0 370 -20z"/>
</g>
</svg>
